# xmcd CD database file
#
# Track frame offsets:
#	150
#	25473
#	54045
#	80054
#	105119
#	163591
#	195630
#	217113
#	241211
#
# Disc length: 3459 seconds
#
# Revision: 0
# Processed by: cddbd v1.5.2PL0 Copyright (c) Steve Scherf et al.
# Submitted via: CDex 1.70beta2
#
DISCID=6d0d8109
DTITLE=Bugge Wesseltoft - Playing
DYEAR=2009
DGENRE=Jazz
TTITLE0=Playing
TTITLE1=Dreaming
TTITLE2=Singing
TTITLE3=Take 5
TTITLE4=Talking to myself (Part1)
TTITLE5=Talking to myself (Part2)
TTITLE6=Rytme
TTITLE7=Hands
TTITLE8=Many Rivers To Cross
EXTD=YEAR: 2009
EXTT0=
EXTT1=
EXTT2=
EXTT3=
EXTT4=
EXTT5=
EXTT6=
EXTT7=
EXTT8=
PLAYORDER=
